<mxfile host="app.diagrams.net" modified="2024-04-08T12:11:33.597Z" agent="Mozilla/5.0 (Windows NT 10.0; Win64; x64) AppleWebKit/537.36 (KHTML, like Gecko) Chrome/122.0.0.0 Safari/537.36 Edg/122.0.0.0" etag="bD6qltdm7YgzhLzC9afE" version="24.0.6" type="github">
  <diagram name="第 1 页" id="ws-1xwIyOariTcWcIGrg">
    <mxGraphModel dx="1386" dy="785" grid="0" gridSize="10" guides="1" tooltips="1" connect="1" arrows="1" fold="1" page="1" pageScale="1" pageWidth="1169" pageHeight="827" math="0" shadow="0">
      <root>
        <mxCell id="0" />
        <mxCell id="1" parent="0" />
        <mxCell id="hwFdZeZFJDHMBbYX0UYp-23" value="project folder" style="swimlane;whiteSpace=wrap;html=1;" vertex="1" parent="1">
          <mxGeometry x="363" y="243" width="166" height="344" as="geometry" />
        </mxCell>
        <mxCell id="hwFdZeZFJDHMBbYX0UYp-62" value="" style="rounded=0;whiteSpace=wrap;html=1;fillColor=none;" vertex="1" parent="hwFdZeZFJDHMBbYX0UYp-23">
          <mxGeometry x="7" y="228" width="146" height="44" as="geometry" />
        </mxCell>
        <mxCell id="hwFdZeZFJDHMBbYX0UYp-44" value="&lt;div&gt;&lt;br&gt;&lt;/div&gt;&lt;div&gt;&lt;br&gt;&lt;/div&gt;" style="rounded=0;whiteSpace=wrap;html=1;fillColor=none;" vertex="1" parent="hwFdZeZFJDHMBbYX0UYp-23">
          <mxGeometry x="7" y="38" width="146" height="58" as="geometry" />
        </mxCell>
        <mxCell id="hwFdZeZFJDHMBbYX0UYp-36" value="estore.sql" style="text;html=1;align=left;verticalAlign=middle;whiteSpace=wrap;rounded=0;" vertex="1" parent="hwFdZeZFJDHMBbYX0UYp-23">
          <mxGeometry x="9" y="279" width="60" height="30" as="geometry" />
        </mxCell>
        <mxCell id="hwFdZeZFJDHMBbYX0UYp-26" value="resource&lt;div&gt;&lt;span style=&quot;white-space: pre;&quot;&gt;&#x9;&lt;/span&gt;&lt;span style=&quot;background-color: initial;&quot;&gt;application.properties&lt;/span&gt;&lt;br&gt;&lt;/div&gt;" style="text;html=1;align=left;verticalAlign=middle;whiteSpace=wrap;rounded=0;" vertex="1" parent="hwFdZeZFJDHMBbYX0UYp-23">
          <mxGeometry x="9" y="181" width="144" height="30" as="geometry" />
        </mxCell>
        <mxCell id="hwFdZeZFJDHMBbYX0UYp-27" value="&lt;div&gt;ui&lt;/div&gt;&lt;span style=&quot;white-space: pre;&quot;&gt;&#x9;&lt;/span&gt;App.vue&lt;div&gt;&lt;span style=&quot;white-space: pre;&quot;&gt;&#x9;&lt;/span&gt;main.js&lt;/div&gt;&lt;div&gt;&lt;span style=&quot;white-space: pre;&quot;&gt;&#x9;&lt;/span&gt;...&lt;/div&gt;&lt;div&gt;&lt;span style=&quot;white-space: pre;&quot;&gt;&#x9;&lt;/span&gt;package.json&lt;/div&gt;" style="text;html=1;align=left;verticalAlign=middle;whiteSpace=wrap;rounded=0;" vertex="1" parent="hwFdZeZFJDHMBbYX0UYp-23">
          <mxGeometry x="9" y="44" width="60" height="30" as="geometry" />
        </mxCell>
        <mxCell id="hwFdZeZFJDHMBbYX0UYp-30" value="&lt;div&gt;src&lt;/div&gt;&lt;span style=&quot;white-space: pre;&quot;&gt;&#x9;&lt;/span&gt;com.estore&lt;div&gt;&lt;span style=&quot;white-space: pre;&quot;&gt;&#x9;&lt;span style=&quot;white-space: pre;&quot;&gt;&#x9;&lt;/span&gt;&lt;/span&gt;&lt;span style=&quot;background-color: initial;&quot;&gt;controller&lt;/span&gt;&lt;/div&gt;&lt;div&gt;&lt;span style=&quot;white-space: pre;&quot;&gt;&#x9;&lt;span style=&quot;white-space: pre;&quot;&gt;&#x9;&lt;/span&gt;&lt;/span&gt;dao&lt;/div&gt;&lt;div&gt;&lt;span style=&quot;white-space: pre;&quot;&gt;&#x9;&lt;span style=&quot;white-space: pre;&quot;&gt;&#x9;&lt;/span&gt;&lt;/span&gt;servlet&lt;/div&gt;&lt;div&gt;&lt;span style=&quot;white-space: pre;&quot;&gt;&#x9;&lt;span style=&quot;white-space: pre;&quot;&gt;&#x9;&lt;/span&gt;&lt;/span&gt;util&lt;/div&gt;" style="text;html=1;align=left;verticalAlign=middle;whiteSpace=wrap;rounded=0;" vertex="1" parent="hwFdZeZFJDHMBbYX0UYp-23">
          <mxGeometry x="9" y="124" width="60" height="30" as="geometry" />
        </mxCell>
        <mxCell id="hwFdZeZFJDHMBbYX0UYp-33" value="static&lt;div&gt;&lt;span style=&quot;white-space: pre;&quot;&gt;&#x9;&lt;/span&gt;&lt;span style=&quot;background-color: initial;&quot;&gt;jQuery.js&lt;/span&gt;&lt;br&gt;&lt;/div&gt;&lt;div&gt;&lt;span style=&quot;white-space: pre;&quot;&gt;&#x9;&lt;/span&gt;bootstrap.js&lt;/div&gt;&lt;div&gt;&lt;span style=&quot;white-space: pre;&quot;&gt;&#x9;&lt;/span&gt;...&lt;br&gt;&lt;/div&gt;" style="text;html=1;align=left;verticalAlign=middle;whiteSpace=wrap;rounded=0;" vertex="1" parent="hwFdZeZFJDHMBbYX0UYp-23">
          <mxGeometry x="9" y="228" width="60" height="30" as="geometry" />
        </mxCell>
        <mxCell id="hwFdZeZFJDHMBbYX0UYp-32" value="pom.xml" style="text;html=1;align=left;verticalAlign=middle;whiteSpace=wrap;rounded=0;" vertex="1" parent="hwFdZeZFJDHMBbYX0UYp-23">
          <mxGeometry x="9" y="309" width="60" height="30" as="geometry" />
        </mxCell>
        <mxCell id="hwFdZeZFJDHMBbYX0UYp-46" value="" style="rounded=0;whiteSpace=wrap;html=1;fillColor=none;" vertex="1" parent="hwFdZeZFJDHMBbYX0UYp-23">
          <mxGeometry x="7" y="284.5" width="62" height="21.5" as="geometry" />
        </mxCell>
        <mxCell id="hwFdZeZFJDHMBbYX0UYp-47" value="" style="rounded=0;whiteSpace=wrap;html=1;fillColor=none;" vertex="1" parent="hwFdZeZFJDHMBbYX0UYp-23">
          <mxGeometry x="7" y="314" width="62" height="21.5" as="geometry" />
        </mxCell>
        <mxCell id="hwFdZeZFJDHMBbYX0UYp-65" value="" style="rounded=0;whiteSpace=wrap;html=1;fillColor=none;" vertex="1" parent="hwFdZeZFJDHMBbYX0UYp-23">
          <mxGeometry x="7" y="194" width="146" height="21" as="geometry" />
        </mxCell>
        <mxCell id="hwFdZeZFJDHMBbYX0UYp-71" value="" style="endArrow=classic;html=1;rounded=0;entryX=0.01;entryY=0.488;entryDx=0;entryDy=0;entryPerimeter=0;" edge="1" parent="hwFdZeZFJDHMBbYX0UYp-23" target="hwFdZeZFJDHMBbYX0UYp-70">
          <mxGeometry width="50" height="50" relative="1" as="geometry">
            <mxPoint x="113" y="132" as="sourcePoint" />
            <mxPoint x="185" y="132" as="targetPoint" />
          </mxGeometry>
        </mxCell>
        <mxCell id="hwFdZeZFJDHMBbYX0UYp-42" style="edgeStyle=orthogonalEdgeStyle;rounded=0;orthogonalLoop=1;jettySize=auto;html=1;exitX=1;exitY=0.75;exitDx=0;exitDy=0;entryX=0;entryY=0.75;entryDx=0;entryDy=0;" edge="1" parent="1" source="hwFdZeZFJDHMBbYX0UYp-26">
          <mxGeometry relative="1" as="geometry">
            <mxPoint x="541" y="446.1300000000001" as="targetPoint" />
          </mxGeometry>
        </mxCell>
        <mxCell id="hwFdZeZFJDHMBbYX0UYp-48" value="" style="verticalLabelPosition=bottom;verticalAlign=top;html=1;shape=mxgraph.basic.acute_triangle;dx=0.5;rotation=90;" vertex="1" parent="1">
          <mxGeometry x="364.88" y="270.13" width="8.25" height="6" as="geometry" />
        </mxCell>
        <mxCell id="hwFdZeZFJDHMBbYX0UYp-54" value="" style="verticalLabelPosition=bottom;verticalAlign=top;html=1;shape=mxgraph.basic.acute_triangle;dx=0.5;rotation=90;" vertex="1" parent="1">
          <mxGeometry x="364.88" y="343.13" width="8.25" height="6" as="geometry" />
        </mxCell>
        <mxCell id="hwFdZeZFJDHMBbYX0UYp-55" value="" style="verticalLabelPosition=bottom;verticalAlign=top;html=1;shape=mxgraph.basic.acute_triangle;dx=0.5;rotation=90;" vertex="1" parent="1">
          <mxGeometry x="390.88" y="358.13" width="8.25" height="6" as="geometry" />
        </mxCell>
        <mxCell id="hwFdZeZFJDHMBbYX0UYp-56" value="" style="verticalLabelPosition=bottom;verticalAlign=top;html=1;shape=mxgraph.basic.acute_triangle;dx=0.5;rotation=90;" vertex="1" parent="1">
          <mxGeometry x="416.88" y="372.13" width="8.25" height="6" as="geometry" />
        </mxCell>
        <mxCell id="hwFdZeZFJDHMBbYX0UYp-57" value="" style="verticalLabelPosition=bottom;verticalAlign=top;html=1;shape=mxgraph.basic.acute_triangle;dx=0.5;rotation=90;" vertex="1" parent="1">
          <mxGeometry x="416.88" y="386.13" width="8.25" height="6" as="geometry" />
        </mxCell>
        <mxCell id="hwFdZeZFJDHMBbYX0UYp-58" value="" style="verticalLabelPosition=bottom;verticalAlign=top;html=1;shape=mxgraph.basic.acute_triangle;dx=0.5;rotation=90;" vertex="1" parent="1">
          <mxGeometry x="416.88" y="401.13" width="8.25" height="6" as="geometry" />
        </mxCell>
        <mxCell id="hwFdZeZFJDHMBbYX0UYp-59" value="" style="verticalLabelPosition=bottom;verticalAlign=top;html=1;shape=mxgraph.basic.acute_triangle;dx=0.5;rotation=90;" vertex="1" parent="1">
          <mxGeometry x="416.88" y="415.13" width="8.25" height="6" as="geometry" />
        </mxCell>
        <mxCell id="hwFdZeZFJDHMBbYX0UYp-60" value="" style="verticalLabelPosition=bottom;verticalAlign=top;html=1;shape=mxgraph.basic.acute_triangle;dx=0.5;rotation=90;" vertex="1" parent="1">
          <mxGeometry x="364.88" y="428.13" width="8.25" height="6" as="geometry" />
        </mxCell>
        <mxCell id="hwFdZeZFJDHMBbYX0UYp-61" value="" style="verticalLabelPosition=bottom;verticalAlign=top;html=1;shape=mxgraph.basic.acute_triangle;dx=0.5;rotation=90;" vertex="1" parent="1">
          <mxGeometry x="364.88" y="461.13" width="8.25" height="6" as="geometry" />
        </mxCell>
        <mxCell id="hwFdZeZFJDHMBbYX0UYp-64" style="edgeStyle=orthogonalEdgeStyle;rounded=0;orthogonalLoop=1;jettySize=auto;html=1;exitX=1;exitY=0.5;exitDx=0;exitDy=0;entryX=0;entryY=0.75;entryDx=0;entryDy=0;" edge="1" parent="1" source="hwFdZeZFJDHMBbYX0UYp-47">
          <mxGeometry relative="1" as="geometry">
            <mxPoint x="541" y="567" as="targetPoint" />
          </mxGeometry>
        </mxCell>
        <mxCell id="hwFdZeZFJDHMBbYX0UYp-67" value="" style="verticalLabelPosition=bottom;verticalAlign=top;html=1;shape=mxgraph.basic.rect;fillColor2=none;strokeWidth=1;size=20;indent=5;" vertex="1" parent="1">
          <mxGeometry x="540" y="549" width="102" height="53" as="geometry" />
        </mxCell>
        <mxCell id="hwFdZeZFJDHMBbYX0UYp-68" value="" style="verticalLabelPosition=bottom;verticalAlign=top;html=1;shape=mxgraph.basic.rect;fillColor2=none;strokeWidth=1;size=20;indent=5;" vertex="1" parent="1">
          <mxGeometry x="540" y="418" width="102" height="53" as="geometry" />
        </mxCell>
        <mxCell id="hwFdZeZFJDHMBbYX0UYp-69" value="Text" style="text;html=1;align=center;verticalAlign=middle;whiteSpace=wrap;rounded=0;" vertex="1" parent="1">
          <mxGeometry x="549" y="291" width="60" height="30" as="geometry" />
        </mxCell>
        <mxCell id="hwFdZeZFJDHMBbYX0UYp-70" value="" style="verticalLabelPosition=bottom;verticalAlign=top;html=1;shape=mxgraph.basic.rect;fillColor2=none;strokeWidth=1;size=20;indent=5;" vertex="1" parent="1">
          <mxGeometry x="540" y="349.13" width="102" height="53" as="geometry" />
        </mxCell>
        <mxCell id="hwFdZeZFJDHMBbYX0UYp-72" value="" style="endArrow=classic;html=1;rounded=0;" edge="1" parent="1">
          <mxGeometry width="50" height="50" relative="1" as="geometry">
            <mxPoint x="516" y="305.5" as="sourcePoint" />
            <mxPoint x="566" y="305.5" as="targetPoint" />
          </mxGeometry>
        </mxCell>
        <mxCell id="hwFdZeZFJDHMBbYX0UYp-73" value="dependency" style="text;html=1;align=center;verticalAlign=middle;whiteSpace=wrap;rounded=0;" vertex="1" parent="1">
          <mxGeometry x="549" y="479" width="74" height="28" as="geometry" />
        </mxCell>
        <mxCell id="hwFdZeZFJDHMBbYX0UYp-81" value="&lt;p class=&quot;MsoNormal&quot; style=&quot;line-height: 40%; font-size: 11px;&quot;&gt;&lt;span style=&quot;font-size: 11px;&quot;&gt;&lt;font style=&quot;font-size: 11px;&quot; face=&quot;Times New Roman&quot;&gt;&amp;lt;artifactId&amp;gt;&lt;/font&gt;&lt;/span&gt;&lt;/p&gt;&lt;p class=&quot;MsoNormal&quot; style=&quot;line-height: 40%; font-size: 11px;&quot;&gt;&lt;span style=&quot;font-size: 11px;&quot;&gt;&lt;font face=&quot;Times New Roman&quot; style=&quot;font-size: 11px;&quot;&gt;tomcat7-maven-plugin&lt;/font&gt;&lt;/span&gt;&lt;/p&gt;&lt;p class=&quot;MsoNormal&quot; style=&quot;line-height: 40%; font-size: 11px;&quot;&gt;&lt;span style=&quot;font-size: 11px;&quot;&gt;&lt;font face=&quot;Times New Roman&quot; style=&quot;font-size: 11px;&quot;&gt;&amp;lt;/artifactId&amp;gt;&lt;/font&gt;&lt;/span&gt;&lt;span style=&quot;font-family: Calibri; font-size: 11px;&quot;&gt;&lt;/span&gt;&lt;/p&gt;" style="text;html=1;align=center;verticalAlign=middle;whiteSpace=wrap;rounded=0;fontSize=11;" vertex="1" parent="1">
          <mxGeometry x="533" y="554.75" width="116" height="41.5" as="geometry" />
        </mxCell>
        <mxCell id="hwFdZeZFJDHMBbYX0UYp-75" value="sql file" style="text;html=1;align=center;verticalAlign=middle;whiteSpace=wrap;rounded=0;" vertex="1" parent="1">
          <mxGeometry x="547" y="523.25" width="60" height="30" as="geometry" />
        </mxCell>
        <mxCell id="hwFdZeZFJDHMBbYX0UYp-82" style="edgeStyle=orthogonalEdgeStyle;rounded=0;orthogonalLoop=1;jettySize=auto;html=1;exitX=1;exitY=0.5;exitDx=0;exitDy=0;" edge="1" parent="1" source="hwFdZeZFJDHMBbYX0UYp-46" target="hwFdZeZFJDHMBbYX0UYp-75">
          <mxGeometry relative="1" as="geometry" />
        </mxCell>
        <mxCell id="hwFdZeZFJDHMBbYX0UYp-84" style="edgeStyle=orthogonalEdgeStyle;rounded=0;orthogonalLoop=1;jettySize=auto;html=1;exitX=1;exitY=0.5;exitDx=0;exitDy=0;entryX=0;entryY=0.5;entryDx=0;entryDy=0;" edge="1" parent="1" source="hwFdZeZFJDHMBbYX0UYp-62" target="hwFdZeZFJDHMBbYX0UYp-73">
          <mxGeometry relative="1" as="geometry" />
        </mxCell>
        <mxCell id="hwFdZeZFJDHMBbYX0UYp-85" value="&lt;p class=&quot;MsoNormal&quot; style=&quot;text-align: start; line-height: 40%;&quot;&gt;&lt;font face=&quot;monospace&quot; color=&quot;rgba(0, 0, 0, 0)&quot;&gt;&lt;span style=&quot;font-size: 0px; text-wrap: nowrap;&quot;&gt;&amp;nbsp; &amp;nbsp; datasource:&lt;/span&gt;&lt;/font&gt;&lt;/p&gt;&lt;p class=&quot;MsoNormal&quot; style=&quot;text-align: start; line-height: 40%;&quot;&gt;&lt;font face=&quot;monospace&quot; color=&quot;rgba(0, 0, 0, 0)&quot;&gt;&lt;span style=&quot;font-size: 0px; text-wrap: nowrap;&quot;&gt;&amp;nbsp; &amp;nbsp; &amp;nbsp; &amp;nbsp; url:jdbc:mysql://localhost:3306/mcms&lt;/span&gt;&lt;/font&gt;&lt;/p&gt;&lt;p class=&quot;MsoNormal&quot; style=&quot;text-align: start; line-height: 40%;&quot;&gt;&lt;font face=&quot;monospace&quot; color=&quot;rgba(0, 0, 0, 0)&quot;&gt;&lt;span style=&quot;font-size: 0px; text-wrap: nowrap;&quot;&gt;&amp;nbsp; &amp;nbsp; &amp;nbsp; &amp;nbsp; username:root&lt;/span&gt;&lt;/font&gt;&lt;/p&gt;&lt;p class=&quot;MsoNormal&quot; style=&quot;text-align: start; line-height: 40%;&quot;&gt;&lt;font face=&quot;monospace&quot; color=&quot;rgba(0, 0, 0, 0)&quot;&gt;&lt;span style=&quot;font-size: 0px; text-wrap: nowrap;&quot;&gt;&amp;nbsp; &amp;nbsp; &amp;nbsp; &amp;nbsp; password:123456&lt;/span&gt;&lt;/font&gt;&lt;/p&gt;" style="text;html=1;align=center;verticalAlign=middle;whiteSpace=wrap;rounded=0;fontSize=11;" vertex="1" parent="1">
          <mxGeometry x="723" y="415.13" width="90" height="53.87" as="geometry" />
        </mxCell>
        <mxCell id="hwFdZeZFJDHMBbYX0UYp-86" value="&lt;div style=&quot;font-size: 11px;&quot;&gt;&lt;font style=&quot;font-size: 11px;&quot; face=&quot;Times New Roman&quot;&gt;&amp;nbsp; &amp;nbsp; datasource:&lt;/font&gt;&lt;/div&gt;&lt;div style=&quot;font-size: 11px;&quot;&gt;&lt;font style=&quot;font-size: 11px;&quot; face=&quot;Times New Roman&quot;&gt;&amp;nbsp; &amp;nbsp; &amp;nbsp; &amp;nbsp; url:jdbc:mysql:...&lt;/font&gt;&lt;/div&gt;&lt;div style=&quot;font-size: 11px;&quot;&gt;&lt;font style=&quot;font-size: 11px;&quot; face=&quot;Times New Roman&quot;&gt;&amp;nbsp; &amp;nbsp; &amp;nbsp; &amp;nbsp; username:root&lt;/font&gt;&lt;/div&gt;&lt;div style=&quot;font-size: 11px;&quot;&gt;&lt;font style=&quot;font-size: 11px;&quot; face=&quot;Times New Roman&quot;&gt;&amp;nbsp; &amp;nbsp; &amp;nbsp; &amp;nbsp; password:123456&lt;/font&gt;&lt;/div&gt;" style="text;html=1;align=left;verticalAlign=middle;whiteSpace=wrap;rounded=0;" vertex="1" parent="1">
          <mxGeometry x="529" y="394.5" width="140" height="100" as="geometry" />
        </mxCell>
      </root>
    </mxGraphModel>
  </diagram>
</mxfile>
